<svg xmlns="http://www.w3.org/2000/svg" viewBox="0 0 1638.13 1533.96"><defs><style>.cls-1{fill:#fff;}</style></defs><g id="Layer_2" data-name="Layer 2"><g id="Layer_2-2" data-name="Layer 2"><path class="cls-1" d="M806,1533.71s119.75,12,237.15-129.73L1620.7,368.57s82.18-192.18-110.35-336.32c0,0-223.06-120.12-396.81,103.3L986.76,378.18s-32.88,67.27,86.87,64.87l331.06,16.81S984.41,500.7,982.06,543.94c0,0-21.13,24,32.87,98.5l63.4,88.89s-138.53-88.89-176.1-100.9c0,0-30.52,7.2-42.26,48,0,0-32.87,110.51-54,398.79,0,0,7-185-35.21-396.38,0,0-11.74-69.67-84.53-19.22L550,767s89.22-129.35,103.31-177.39c0,0,28.17-32-44.61-59.26,0,0-183.14-29.63-382.72-15.21,0,0,317-26.43,406.2-69.67,0,0,49.3-16.82,16.43-62.46L510.12,145.16S399.77-13.4,172,73.09C172,73.09-76.86,222,24.1,452.66l561.16,984.95S669.78,1538.51,806,1533.71Z"/></g></g></svg>