<svg xmlns="http://www.w3.org/2000/svg" viewBox="0 0 608.95 113.08"><g id="Layer_2" data-name="Layer 2"><g id="Layer_1-2" data-name="Layer 1"><path d="M96.32,42C103.17,26.82,111,4.1,86,4.1V3.73h45V4.1c-17.88,0-26.22,21.15-34,38.29L64.81,113.08,25,30.24C16.69,12.66,10.73,4.1,0,4.1V3.73H63.62V4.1c-14,0-12.59,12.14-6.86,24.8L79.56,79Z"/><path d="M142.59,60.34c.07,15.57,8.12,31,27.56,31,11.77,0,20.49-5,25.7-14l.23.15c-7,17.73-20.42,31.59-41.72,31.59-24.29,0-39.78-16.69-39.78-40.53s20.56-39.78,44.84-39.78c24.59,0,38.14,12.67,33.38,31.59Zm0-.52h23.84c2.38-9.24,2.53-30.54-9.39-30.54C146.24,29.28,142.59,49.46,142.59,59.82Z"/><path d="M203.53,77h.37c1.27,25.18,23.17,31.51,35.69,31.51,11,0,17.43-4.92,17.43-10.8,0-16.91-53.49-14.68-53.49-44.1,0-18.33,20.86-24.89,36.2-24.89A74.75,74.75,0,0,1,260.22,32L268,28.9l1.49,26.23h-.37c-1-17.88-16.24-25.85-29.13-25.85-10.5,0-15.64,5.28-15.64,10.72,0,17.43,52.44,12.67,52.44,42.09,0,16.09-15.72,27-36.87,27a104.29,104.29,0,0,1-26.52-3.87l-8.27,3.57Z"/><path d="M281.31,29.8h3.13c12.21,0,22.12-1.57,28.38-6.78,4.47-5.66,6.85-14.23,6.85-23h.52V29.8h16.39v.52H320.19V83c0,8,.52,16.38,8.94,16.38,3.73,0,7.38-1.63,10.65-4.32l.23.3c-6.78,6-17.06,13.71-29.28,13.71-13.41,0-18.1-9.39-18.1-21V30.32H281.31Z"/><path d="M391.86,49.46c0-8.79,0-20.18-10.65-20.18a12.48,12.48,0,0,0-12.74,12.51c0,4.1,2.08,7.6,5.21,9-.44,8.5-6.55,12.52-13.33,12.52-7.08,0-13.93-4.4-13.93-13.93,0-18.25,25.18-20.64,37.47-20.64,18.62,0,35.68,5.52,35.68,22.8V90c0,8.94,6,13,13.78,7.45l.23.3c-6.86,5.81-15.35,11.32-26.08,11.32-9.76,0-14.9-8-15.42-18.25H392c-.75,9.09-13.34,18.25-27.56,18.25-14,0-22.95-6.71-22.95-19.52C341.5,66,375,70,391.86,58.4Zm0,9.39c-10.58,6.85-18.48,8.34-18.48,25.63,0,5.66,1.05,15.94,9.39,15.94,5.81,0,9.09-6.56,9.09-12.07Z"/><path d="M474,50.21V88.05c0,15.94.74,19.59,15.94,19.59V108H433.43v-.38c11.63,0,13-3.65,13-19.59V52.29c0-10.95-2.31-15-15-11.69l-.07-.37,42.91-11.48-.45,20.34c3.58-9.91,9.83-20.34,23.46-20.34,10.51,0,21.38,6.26,21.38,18.18,0,9.24-6.55,17.88-16.24,17.88-6.7,0-12.81-4-13.26-12.52,5.07-1.19,7.45-6.25,7.45-10.87,0-4.32-1.93-9.39-7.15-9.39C482.23,32,476.94,41.79,474,50.21Z"/><path d="M609,69c0,23.09-18.92,40.08-43.36,40.08-24.28,0-43.2-17-43.2-40.08,0-23.24,18.92-40.23,43.2-40.23C590,28.75,609,45.74,609,69Zm-30.24,0c0-18.1,0-39.7-13.12-39.7-13,0-13,21.6-13,39.7,0,18.55,0,39.56,13,39.56C578.71,108.54,578.71,87.53,578.71,69Z"/></g></g></svg>